<svg width="13" height="13" viewBox="0 0 13 13" fill="none" xmlns="http://www.w3.org/2000/svg">
<path d="M12.8613 5.0642C12.5613 3.65248 11.7656 2.36757 10.6205 1.44625C9.44958 0.509355 7.99443 -0.000740132 6.49479 8.06048e-07C4.72703 8.06048e-07 3.07592 0.68105 1.8415 1.91779C0.648579 3.11449 -0.00519214 4.69451 3.10569e-05 6.36565C7.16688e-05 7.59087 0.35977 8.78912 1.03452 9.81181L1.16074 9.98737L0.464316 13L3.79556 12.1712C3.79556 12.1712 3.8623 12.1936 3.91163 12.2125C3.96096 12.2313 4.38549 12.3941 4.83584 12.52C5.21017 12.6245 5.98901 12.7812 6.59926 12.7812C8.33017 12.7812 9.94646 12.1109 11.1501 10.8933C12.343 9.68529 13 8.07915 13 6.36913C13.0001 5.93047 12.9536 5.49304 12.8613 5.0642ZM3.71431 7.42857C3.53065 7.42857 3.35112 7.37411 3.19842 7.27208C3.04572 7.17005 2.9267 7.02502 2.85642 6.85535C2.78614 6.68568 2.76775 6.49897 2.80358 6.31885C2.83941 6.13872 2.92785 5.97326 3.05771 5.8434C3.18757 5.71354 3.35303 5.6251 3.53315 5.58927C3.71328 5.55344 3.89998 5.57183 4.06966 5.64211C4.23933 5.71239 4.38435 5.83141 4.48638 5.98411C4.58842 6.13682 4.64288 6.31635 4.64288 6.5C4.64288 6.74627 4.54505 6.98246 4.3709 7.1566C4.19676 7.33074 3.96058 7.42857 3.71431 7.42857ZM6.50002 7.42857C6.31636 7.42857 6.13683 7.37411 5.98413 7.27208C5.83143 7.17005 5.71241 7.02502 5.64213 6.85535C5.57185 6.68568 5.55346 6.49897 5.58929 6.31885C5.62512 6.13872 5.71355 5.97326 5.84342 5.8434C5.97328 5.71354 6.13874 5.6251 6.31886 5.58927C6.49898 5.55344 6.68569 5.57183 6.85536 5.64211C7.02504 5.71239 7.17006 5.83141 7.27209 5.98411C7.37412 6.13682 7.42858 6.31635 7.42858 6.5C7.42858 6.74627 7.33075 6.98246 7.15661 7.1566C6.98247 7.33074 6.74629 7.42857 6.50002 7.42857ZM9.28572 7.42857C9.10207 7.42857 8.92254 7.37411 8.76984 7.27208C8.61713 7.17005 8.49812 7.02502 8.42784 6.85535C8.35756 6.68568 8.33917 6.49897 8.375 6.31885C8.41082 6.13872 8.49926 5.97326 8.62912 5.8434C8.75899 5.71354 8.92444 5.6251 9.10457 5.58927C9.28469 5.55344 9.4714 5.57183 9.64107 5.64211C9.81075 5.71239 9.95577 5.83141 10.0578 5.98411C10.1598 6.13682 10.2143 6.31635 10.2143 6.5C10.2143 6.74627 10.1165 6.98246 9.94232 7.1566C9.76818 7.33074 9.53199 7.42857 9.28572 7.42857Z" fill="#70E000"/>
</svg>
