<svg width="57" height="46" viewBox="0 0 57 46" fill="none" xmlns="http://www.w3.org/2000/svg">
<path d="M57 5.45052C54.8619 6.38771 52.5996 7.00516 50.2847 7.28333C52.7175 5.84629 54.547 3.56329 55.4301 0.862517C53.1301 2.21926 50.6178 3.17122 48.0011 3.67761C46.8992 2.51268 45.574 1.58594 44.106 0.953733C42.6381 0.321523 41.058 -0.00295564 39.4618 2.0286e-05C32.9994 2.0286e-05 27.7697 5.19896 27.7697 11.6078C27.7651 12.4992 27.8664 13.388 28.0713 14.2552C23.4373 14.036 18.8997 12.8435 14.7487 10.754C10.5978 8.66444 6.92489 5.72384 3.96506 2.12033C2.92668 3.88619 2.37753 5.90099 2.375 7.95416C2.375 11.9791 4.45669 15.537 7.6 17.6213C5.73768 17.5767 3.91351 17.0795 2.28238 16.1718V16.3156C2.28238 21.9458 6.31988 26.6296 11.6636 27.6958C10.6587 27.966 9.62322 28.1029 8.58325 28.1031C7.84531 28.1044 7.10905 28.0321 6.38519 27.8874C7.87075 32.4994 12.1944 35.8536 17.3161 35.9494C13.1544 39.1849 8.04486 40.9336 2.79062 40.9207C1.85798 40.9193 0.926209 40.8633 0 40.753C5.34515 44.1961 11.5585 46.0173 17.9004 45.9999C39.4369 45.9999 51.2026 28.3067 51.2026 12.9614C51.2026 12.4583 51.1896 11.9552 51.1658 11.464C53.4495 9.82537 55.4251 7.78898 57 5.45052Z" fill="#38B000" fill-opacity="0.5"/>
</svg>
