<svg width="58" height="58" viewBox="0 0 58 58" fill="none" xmlns="http://www.w3.org/2000/svg">
<path fill-rule="evenodd" clip-rule="evenodd" d="M49.5498 8.42824C46.8687 5.74583 43.6835 3.62022 40.1775 2.17377C36.6716 0.72732 32.9142 -0.0114011 29.1217 0.000133011C13.2053 0.000133011 0.248571 12.8922 0.242098 28.7411C0.235057 33.7878 1.56534 38.7462 4.09754 43.1116L0 58L15.3091 54.0034C19.5468 56.2991 24.2905 57.5006 29.11 57.499H29.1217C45.0367 57.499 57.9921 44.6057 57.9999 28.758C58.0096 24.9783 57.2674 21.2345 55.8167 17.7444C54.3661 14.2542 52.2358 11.0874 49.5498 8.42824ZM29.1217 52.648H29.1113C24.8149 52.6492 20.5966 51.4994 16.8951 49.3181L16.0186 48.8003L6.9341 51.1721L9.35896 42.3569L8.78802 41.4506C6.38567 37.6472 5.11286 33.2397 5.11772 28.7411C5.11772 15.5708 15.8904 4.85503 29.1307 4.85503C35.4822 4.84369 41.5781 7.35567 46.0777 11.8385C50.5772 16.3213 53.1119 22.4078 53.1243 28.7593C53.1191 41.9309 42.3516 52.648 29.1217 52.648ZM42.2869 34.7573C41.5657 34.3974 38.0145 32.66 37.3569 32.4205C36.6992 32.181 36.2137 32.0606 35.7334 32.7804C35.2531 33.5002 33.8691 35.1108 33.4483 35.5963C33.0276 36.0817 32.6068 36.1348 31.8857 35.7749C31.1646 35.415 28.8381 34.6576 26.0818 32.2108C23.9366 30.3064 22.4892 27.9553 22.0684 27.2368C21.6477 26.5182 22.0231 26.1286 22.3843 25.7712C22.7093 25.4489 23.1055 24.9323 23.4667 24.5128C23.8279 24.0934 23.9483 23.793 24.1878 23.314C24.4273 22.835 24.3082 22.4155 24.1282 22.0569C23.9483 21.6983 22.5047 18.1626 21.904 16.7243C21.3176 15.3235 20.7233 15.5138 20.2805 15.4918C19.8598 15.4711 19.3743 15.4659 18.8966 15.4659C18.5314 15.4754 18.1721 15.5601 17.841 15.7147C17.51 15.8693 17.2145 16.0904 16.9727 16.3644C16.3112 17.0842 14.4469 18.8242 14.4469 22.356C14.4469 25.8878 17.0362 29.3056 17.3935 29.7846C17.7508 30.2636 22.4814 37.5175 29.7198 40.6285C31.0639 41.2041 32.4372 41.7089 33.8341 42.1407C35.5625 42.687 37.1355 42.6106 38.3783 42.4255C39.7649 42.2196 42.6507 40.6881 43.2501 39.0102C43.8495 37.3324 43.8508 35.8953 43.6708 35.5963C43.4909 35.2972 43.0093 35.1159 42.2869 34.7573Z" fill="#2F6B13"/>
</svg>
