<svg width="9" height="13" viewBox="0 0 9 13" fill="none" xmlns="http://www.w3.org/2000/svg">
<path d="M4.5 0C6.98428 0 9 1.87194 9 4.17857C9 7.89286 4.5 13 4.5 13C4.5 13 0 7.89286 0 4.17857C0 1.87194 2.01572 0 4.5 0ZM4.5 6.5C4.85601 6.5 5.20402 6.39108 5.50003 6.18701C5.79603 5.98295 6.02675 5.6929 6.16298 5.35356C6.29922 5.01421 6.33487 4.6408 6.26541 4.28055C6.19596 3.9203 6.02453 3.58938 5.77279 3.32966C5.52106 3.06993 5.20033 2.89306 4.85116 2.8214C4.502 2.74974 4.14008 2.78652 3.81117 2.92708C3.48226 3.06764 3.20114 3.30568 3.00336 3.61108C2.80557 3.91649 2.7 4.27555 2.7 4.64286C2.70052 5.13524 2.89033 5.6073 3.22778 5.95546C3.56524 6.30363 4.02277 6.49946 4.5 6.5Z" fill="#38b000"/>
</svg>
