<svg width="39" height="42" viewBox="0 0 39 42" fill="none" xmlns="http://www.w3.org/2000/svg">
<path d="M31.2501 41.9996C29.5504 41.9996 27.1629 41.3378 23.5878 39.1871C19.2403 36.5621 15.8776 34.1386 11.5537 29.4951C7.38468 25.0091 5.35592 22.1047 2.51652 16.5415C-0.69119 10.2602 -0.144382 6.96765 0.466859 5.56045C1.19478 3.87855 2.26924 2.8726 3.65803 1.87415C4.44685 1.31768 5.28162 0.840657 6.15175 0.449136C6.23882 0.408823 6.3198 0.370385 6.39207 0.335697C6.82307 0.126632 7.47611 -0.18931 8.30328 0.148194C8.85532 0.371322 9.34814 0.82789 10.1196 1.64821C11.7017 3.32823 13.8637 7.06984 14.6612 8.90736C15.1967 10.1458 15.5511 10.9633 15.552 11.8802C15.552 12.9537 15.0504 13.7815 14.4418 14.6749C14.3278 14.8427 14.2146 15.0031 14.1048 15.1587C13.4422 16.0962 13.2968 16.3671 13.3926 16.8509C13.5868 17.8231 15.0348 20.7172 17.4144 23.2738C19.7941 25.8304 22.4045 27.291 23.3109 27.4991C23.7793 27.607 24.0362 27.4438 24.9348 26.7051C25.0637 26.5991 25.196 26.4895 25.3344 26.3798C26.2626 25.6363 26.9958 25.1104 27.9692 25.1104H27.9744C28.8217 25.1104 29.547 25.506 30.7485 26.1585C32.3158 27.0098 35.8953 29.3076 37.4652 31.0129C38.2288 31.8417 38.6546 32.3705 38.8627 32.9639C39.1762 33.8574 38.881 34.5577 38.6886 35.0264C38.6564 35.1042 38.6207 35.1896 38.5832 35.2842C38.2167 36.2195 37.7711 37.1164 37.2519 37.9637C36.3263 39.4543 35.3886 40.6084 33.823 41.3931C33.0191 41.8025 32.1393 42.0099 31.2501 41.9996Z" fill="#38B000"/>
</svg>
