<svg width="29" height="23" viewBox="0 0 29 23" fill="none" xmlns="http://www.w3.org/2000/svg">
<path d="M29 2.72526C27.9122 3.19386 26.7612 3.50258 25.5834 3.64167C26.8212 2.92315 27.752 1.78165 28.2013 0.431259C27.0311 1.10963 25.7529 1.58561 24.4216 1.83881C23.861 1.25634 23.1868 0.792971 22.4399 0.476866C21.6931 0.160761 20.8891 -0.00147782 20.0771 1.0143e-05C16.7892 1.0143e-05 14.1284 2.59948 14.1284 5.8039C14.1261 6.24962 14.1776 6.69402 14.2819 7.12759C11.9242 7.01802 9.61563 6.42177 7.50374 5.377C5.39185 4.33222 3.52319 2.86192 2.01731 1.06016C1.48901 1.9431 1.20962 2.9505 1.20833 3.97708C1.20833 5.98957 2.26744 7.76848 3.86667 8.81066C2.91917 8.78837 1.99109 8.53975 1.16121 8.08592V8.1578C1.16121 10.9729 3.21537 13.3148 5.93412 13.8479C5.42287 13.983 4.89603 14.0515 4.36692 14.0515C3.99147 14.0522 3.61689 14.0161 3.2486 13.9437C4.00442 16.2497 6.20419 17.9268 8.80996 17.9747C6.69258 19.5924 4.093 20.4668 1.41979 20.4604C0.94529 20.4597 0.471229 20.4317 0 20.3765C2.71946 22.098 5.88062 23.0086 9.10721 22.9999C20.0644 22.9999 26.0505 14.1534 26.0505 6.48072C26.0505 6.22916 26.0438 5.9776 26.0317 5.73202C27.1936 4.91269 28.1988 3.89449 29 2.72526Z" fill="#03A553"/>
</svg>
